PathFileType	4	(X/Y/Z)	C:\Users\Basilio\Documents\Thesis Gigler\squatting_fais\c3dfiles\019\SJ_pre5\markers_experimental.trc
DataRate	CameraRate	NumFrames	NumMarkers	Units	OrigDataRate	OrigDataStartFrame	OrigNumFrames
200.000000	200.000000	4	59	mm	200.000000	162	1303
Frame#	Time	FHD			LBHD			RBHD			C7			T10			CLAV			LSHO			LUUPA			LMUPA			LDUPA			LLEP			LMEP			LRAD			LUL			LRFIN			RSHO			RUPA1			RMUPA			RDUPA			RLEP			RMEP			RRAD			RUL			RUFIN			LASI			USACR			LSACR			RSACR			LTHI1			LTHI2			LTHI3			LTHI4			LLFC			LTIB1			LTIB2			LTIB3			LTIB4			LLMAL			LMMAL			LHEE			LMT1			LMT2			LMT5			RTHI			RTHI2			RTHI3			RTHI4			RLFC			RTIB1			RTIB2			RTIB3			RTIB4			RLMAL			RMMAL			RHEE			RMT1			RMT2			RMT5			RASI			
		X1	Y1	Z1	X2	Y2	Z2	X3	Y3	Z3	X4	Y4	Z4	X5	Y5	Z5	X6	Y6	Z6	X7	Y7	Z7	X8	Y8	Z8	X9	Y9	Z9	X10	Y10	Z10	X11	Y11	Z11	X12	Y12	Z12	X13	Y13	Z13	X14	Y14	Z14	X15	Y15	Z15	X16	Y16	Z16	X17	Y17	Z17	X18	Y18	Z18	X19	Y19	Z19	X20	Y20	Z20	X21	Y21	Z21	X22	Y22	Z22	X23	Y23	Z23	X24	Y24	Z24	X25	Y25	Z25	X26	Y26	Z26	X27	Y27	Z27	X28	Y28	Z28	X29	Y29	Z29	X30	Y30	Z30	X31	Y31	Z31	X32	Y32	Z32	X33	Y33	Z33	X34	Y34	Z34	X35	Y35	Z35	X36	Y36	Z36	X37	Y37	Z37	X38	Y38	Z38	X39	Y39	Z39	X40	Y40	Z40	X41	Y41	Z41	X42	Y42	Z42	X43	Y43	Z43	X44	Y44	Z44	X45	Y45	Z45	X46	Y46	Z46	X47	Y47	Z47	X48	Y48	Z48	X49	Y49	Z49	X50	Y50	Z50	X51	Y51	Z51	X52	Y52	Z52	X53	Y53	Z53	X54	Y54	Z54	X55	Y55	Z55	X56	Y56	Z56	X57	Y57	Z57	X58	Y58	Z58	X59	Y59	Z59	

163	0.8100000000000001	90.45281982421876	1060.10400390625	-865.759948730469	-34.42229080200196	1090.563598632813	-1013.659057617188	-44.34867858886719	1090.673706054688	-874.3847656250002	-144.1870269775391	982.2066040039065	-942.0366821289065	-386.8149414062501	827.073425292969	-950.6729125976565	-73.7007293701172	848.7493286132815	-939.7678833007815	-83.90297698974611	923.2947998046877	-1091.34716796875	-193.1492309570313	864.3428955078127	-1210.7421875	-226.9746551513672	830.303161621094	-1193.713256835938	-246.5097351074219	847.4077758789065	-1247.886474609375	-309.3630981445313	857.544372558594	-1305.673217773438	-359.8272705078126	904.2031250000002	-1279.833862304688	-464.7648010253907	667.6646728515626	-1253.32763671875	-471.8528747558595	698.3710327148439	-1192.42822265625	-437.2783203125001	665.9642333984376	-1162.776977539063	-90.85986328125001	920.4209594726565	-799.930603027344	-225.8949127197266	922.698425292969	-665.4512329101564	-234.9996795654297	869.7546386718752	-659.0045166015626	-275.5635986328126	894.2304687500002	-620.6694946289064	-337.2471008300782	854.0472412109377	-585.2937622070314	-382.0184631347657	902.8941040039065	-612.5941162109376	-484.3679199218751	697.8175659179689	-731.0620117187501	-468.072723388672	655.4813842773439	-680.9190063476564	-450.3512573242189	666.1954345703126	-773.5349731445315	nan	nan	nan	-508.3770751953126	746.0361938476564	-959.4147949218752	-539.4155273437501	728.9613647460939	-989.3968505859377	-536.3546142578126	724.0979003906251	-931.6232910156252	-399.3116455078126	511.3425598144532	-1185.825927734375	-315.2175903320313	519.4236450195314	-1200.507446289063	-295.2318725585938	559.0526733398439	-1183.4423828125	-273.6528930664063	473.9706420898439	-1205.523193359375	-197.758285522461	431.5569763183595	-1197.03564453125	-164.3302459716797	297.7034301757813	-1168.478637695313	-235.7672424316407	273.7111511230469	-1215.704467773438	-201.6358795166016	260.8241577148438	-1192.945556640625	-233.0229034423829	190.466796875	-1153.214233398438	-346.6758728027344	94.4481887817383	-1172.203491210938	-318.7066650390626	97.10876464843753	-1089.655395507813	-400.2315063476564	42.57728576660157	-1109.567504882813	-187.9283294677735	57.73925781250001	-1128.562866210938	-194.7204132080079	59.37643432617189	-1171.31005859375	-242.8414001464844	35.7170753479004	-1217.672119140625	-471.6959838867189	559.8280639648439	-750.0695190429689	-410.3497314453126	572.2130737304689	-742.2837524414064	-398.2205505371095	592.9420776367189	-767.6198730468751	-349.6993103027344	528.8335571289064	-709.5895996093751	-223.3494873046876	439.2698974609376	-693.8737182617189	-195.6705169677735	262.4465637207032	-730.2927856445314	-286.7236022949219	213.5172119140626	-691.2787475585939	-247.3716583251954	195.5240173339844	-716.5027465820314	-261.8143920898438	161.1376037597657	-759.3760375976564	-354.4101562500001	97.883415222168	-725.3286743164064	-316.0873413085938	93.82360076904298	-797.2681884765627	-400.3599243164064	43.99590682983399	-788.162536621094	-197.5185699462891	54.46032714843751	-736.2711791992189	-209.6723632812501	62.42297744750978	-692.3609008789064	-261.6188049316407	40.49522399902344	-655.0388183593751	-499.9725646972657	636.9530639648439	-841.762634277344	
164	0.8150000000000001	91.37358856201173	1055.442626953125	-865.7256469726565	-33.81760025024415	1086.17578125	-1013.741027832031	-43.39451599121094	1086.128173828125	-874.274597167969	-144.1057434082032	978.4799804687502	-942.2916259765627	-386.6016235351564	823.9758300781252	-950.7636718750002	-73.35686492919923	844.5821533203127	-939.6520996093752	-83.16686248779298	919.1433105468752	-1091.28076171875	-193.1421051025391	860.8994750976565	-1210.360473632813	-226.9632110595704	827.0657958984377	-1193.49072265625	-247.8482513427735	844.2230224609377	-1246.365356445313	-309.7685546875001	854.9552001953127	-1304.980346679688	-359.6394348144532	901.8811645507815	-1279.096435546875	-465.5150146484376	665.7427978515626	-1253.068481445313	-472.4008789062501	696.3312377929689	-1191.9892578125	-436.0898742675782	663.0971069335939	-1162.266845703125	-90.55837249755861	916.8792114257815	-799.988708496094	-225.7384948730469	919.0510864257815	-665.9596557617189	-234.9413452148438	866.5736083984377	-659.0296630859376	-275.5823669433594	891.3211059570315	-620.9008178710939	-337.4658508300782	851.4018554687502	-585.5361938476564	-381.5951843261719	900.3670043945315	-612.6241455078126	-485.1074218750001	695.7380981445314	-731.3962402343751	-468.8894958496095	653.3253173828126	-681.1936645507814	-450.9375000000001	664.1270141601564	-773.7674560546877	nan	nan	nan	-508.6478271484376	743.2856445312501	-959.523864746094	-537.9008789062501	725.8129272460939	-987.9695434570315	-536.0101928710939	721.3992919921876	-931.6961669921877	-399.786834716797	509.8375244140626	-1185.90625	-315.5227661132813	518.2817382812501	-1200.544555664063	-295.7763061523438	558.0668334960939	-1183.339233398438	-273.6127319335938	472.9673156738282	-1205.858520507813	-197.7106475830079	431.3648376464845	-1197.439208984375	-164.0643005371094	297.4785156250001	-1168.633178710938	-235.5990753173829	273.5594177246094	-1215.798461914063	-201.3925933837891	260.6663818359376	-1193.031616210938	-233.0050964355469	190.3538970947266	-1153.322143554688	-346.6510925292969	94.42103576660158	-1172.231201171875	-318.6834411621094	97.14161682128909	-1089.6669921875	-400.2359008789064	42.61531829833985	-1109.575317382813	-187.8970184326172	57.73453521728517	-1128.54345703125	-194.7287292480469	59.38305282592775	-1171.311645507813	-242.9669952392579	35.81660461425782	-1217.599609375	-472.1515197753907	557.9452514648439	-749.9971313476564	-410.6809692382814	570.5141601562501	-741.9832763671876	-398.6703186035157	591.1415405273439	-767.6953125000001	-349.8693237304688	527.7562255859376	-709.5408935546876	-222.9140930175782	439.0969848632814	-693.6809082031251	-195.4270782470704	262.3597106933594	-730.4132690429689	-286.5310668945313	213.4566802978516	-691.1845092773439	-247.2089843750001	195.4112701416016	-716.4996948242189	-261.7421264648438	161.0756072998047	-759.3325805664064	-354.3669738769532	97.90195465087893	-725.3032836914064	-316.3524780273438	94.14801025390626	-797.5980224609377	-400.2594299316407	43.92358779907227	-788.2492675781252	-197.4870300292969	54.45442581176759	-736.2577514648439	-209.0261230468751	62.16683197021486	-692.3602294921876	-261.6244506835938	40.42589950561524	-655.0283813476564	-499.803192138672	636.9371948242189	-839.240173339844	
165	0.8200000000000001	92.16967773437501	1050.717895507813	-865.7604980468752	-33.26652145385743	1081.918212890625	-1013.476257324219	-42.40443801879884	1081.291015625	-874.2622070312502	-143.7972259521485	974.4342041015627	-942.7022705078127	-386.4552307128907	820.9250488281252	-950.850769042969	-72.88400268554689	840.3191528320315	-939.4055175781252	-82.25496673583986	915.0406494140627	-1091.1572265625	-193.0196533203126	857.6346435546877	-1210.155151367188	-226.8978881835938	823.8902587890627	-1193.259033203125	-247.6556396484376	841.2709960937502	-1246.067504882813	-309.8026428222657	852.4448242187502	-1304.515258789063	-359.5304870605469	899.5344848632815	-1278.393676757813	-466.2402954101564	663.8449096679689	-1252.7177734375	-472.9525756835939	694.3502197265626	-1191.580078125	-437.4467163085939	661.2753295898439	-1162.045654296875	-89.93752288818361	912.8923339843752	-799.7904052734377	-225.3836517333985	915.8530273437502	-666.1771850585939	-234.9133605957032	863.425720214844	-659.0744628906251	-275.5002441406251	888.1353149414065	-621.0169677734376	-337.4969482421876	848.7295532226565	-585.8410034179689	-381.6041259765626	897.934753417969	-613.2203979492189	-485.7412719726564	693.7717895507814	-731.8851928710939	-469.8656005859376	651.2918701171876	-681.5018920898439	-451.7366027832032	662.0777587890626	-774.1842041015627	nan	nan	nan	-508.8369750976564	740.5234375000001	-959.614196777344	-538.0137939453126	723.1146850585939	-987.889343261719	-536.3009033203126	718.6791381835939	-931.833435058594	-399.7835998535157	507.8252868652345	-1185.903930664063	-315.7368469238282	517.1386108398439	-1200.668212890625	-296.2563171386719	557.0347290039064	-1183.392456054688	-273.5552978515626	472.0995178222657	-1206.156494140625	-197.5044860839844	431.1429443359376	-1197.643676757813	-163.7435913085938	297.3215942382813	-1168.731811523438	-235.396713256836	273.4197998046876	-1215.974243164063	-201.2434387207032	260.4651489257813	-1193.192138671875	-232.8580627441407	190.1965637207032	-1153.322265625	-346.5632019042969	94.40998840332033	-1172.207397460938	-318.6308898925782	97.1176681518555	-1089.652465820313	-400.2239990234376	42.57133102416993	-1109.575927734375	-187.8901062011719	57.74542236328126	-1128.493041992188	-194.736801147461	59.37992095947267	-1171.312255859375	-243.0806884765626	35.8658790588379	-1217.64111328125	-472.3277282714845	555.9835815429689	-749.9356079101564	-411.3380126953126	568.3262329101564	-741.4207763671876	-399.0687561035157	589.4743652343751	-767.8148803710939	-350.1689453125001	526.6372680664064	-709.5715942382814	-222.6091003417969	438.7253723144532	-693.4831542968751	-195.053695678711	262.0829772949219	-730.1109619140626	-286.3920288085938	213.3341979980469	-691.0812377929689	-247.0400085449219	195.2926940917969	-716.3869018554689	-261.5553283691407	160.9515686035157	-759.1956787109376	-354.2845153808594	97.89200592041018	-725.2324218750001	-316.0766906738282	93.85739898681642	-797.1685791015627	-400.3426513671876	43.98405838012696	-788.1721191406252	-197.4085388183594	54.4009246826172	-736.2146606445314	-209.5715484619141	62.36963272094728	-692.2688598632814	-261.5858459472657	40.47319030761719	-655.0800781250001	-501.3987121582032	635.0695800781251	-838.5327148437502	
166	0.8250000000000001	93.18434906005861	1046.073120117188	-865.6296386718752	-32.02769470214844	1077.369750976563	-1013.296997070313	-41.41145706176759	1077.038696289063	-874.1373291015627	-143.4321594238282	970.6985473632815	-942.692810058594	-386.265594482422	817.8919067382815	-950.9251098632815	-72.46644592285158	836.1331787109377	-939.2835693359377	-81.4335174560547	910.925964355469	-1091.005981445313	-193.0058593750001	854.3369750976565	-1209.886352539063	-226.7999877929688	820.693786621094	-1193.019775390625	-247.8608398437501	838.3652343750002	-1245.553100585938	-309.8533630371094	849.9182128906252	-1304.028198242188	-359.3114318847657	897.2810058593752	-1277.696411132813	-467.1383361816407	662.0531616210939	-1252.3564453125	-473.9876098632814	692.5298461914064	-1191.162841796875	-437.8906250000001	659.1436157226564	-1161.78662109375	-89.31658172607423	908.9052734375002	-799.5924072265627	-225.1226348876954	912.6589355468752	-666.2644042968751	-234.8407592773438	860.2163696289065	-659.0899047851564	-275.4095458984376	885.139831542969	-621.1355590820314	-337.7102355957032	846.305603027344	-586.1640625000001	-381.7364807128907	895.5406494140627	-613.8610229492189	-486.4319152832032	691.6705932617189	-732.1900634765626	-470.9121704101564	649.2224121093751	-681.8367919921876	-452.3927307128907	660.1258544921876	-774.385437011719	nan	nan	nan	-509.022918701172	737.6834106445314	-959.6882324218752	-538.5633544921876	720.4678344726564	-988.0293579101565	-536.7368164062501	716.0770874023439	-931.7222900390627	-400.2395629882814	506.2950744628907	-1186.04345703125	-316.1815490722657	516.1209716796876	-1200.743896484375	-296.9425048828126	556.0998535156251	-1183.409545898438	-273.6074523925782	471.3243408203126	-1206.329956054688	-197.2144775390626	430.8839111328126	-1197.966064453125	-163.5479431152344	296.9899902343751	-1168.897094726563	-235.2225189208985	273.2326965332032	-1216.100708007813	-201.0194396972657	260.3436279296876	-1193.253173828125	-232.7096710205079	190.1213531494141	-1153.44384765625	-346.5179443359376	94.35012054443361	-1172.20068359375	-318.5563964843751	97.12998962402347	-1089.643310546875	-400.2369384765626	42.57735061645509	-1109.519287109375	-187.896469116211	57.72180557250978	-1128.509643554688	-194.6788177490235	59.34697341918947	-1171.205322265625	-242.8959045410157	35.74964141845704	-1217.646362304688	-472.639373779297	554.0146484375001	-749.9813842773439	-411.6201782226564	566.7434692382814	-741.5906982421876	-399.6080322265626	587.9348144531251	-767.9423828125001	-350.1414184570313	525.4003295898439	-709.5419921875001	-222.2705841064454	438.4284973144532	-693.1949462890626	-194.8098907470704	261.8522338867188	-730.0977172851564	-286.1325683593751	213.263900756836	-690.9193115234376	-246.7286071777344	195.1351776123047	-716.4016723632814	-261.3922119140626	160.8997955322266	-759.1219482421876	-354.2085876464844	97.83111572265628	-725.1635742187501	-316.2532653808594	94.1719436645508	-797.4958496093752	-400.320281982422	43.98490524291993	-788.1846923828127	-197.4282989501954	54.42470932006837	-736.2097778320314	-209.592025756836	62.34582519531251	-692.2147216796876	-261.6524047851563	40.51938629150391	-655.0325927734376	-503.4615783691407	633.1543579101564	-837.8212890625002	
